# xmcd
#
# Track frame offsets: 
#        150
#        13815
#        25315
#        38240
#        50675
#        61230
#        74159
#        85671
#        98435
#        111032
#        122753
#        135281
#        148986
#        161943
#        174017
#        185788
#        197591
#        210727
#        222120
#        234204
#
# Disc length: 3292 seconds
#
# Revision: 1
# Processed by: cddbd v1.5.2PL0 Copyright (c) Steve Scherf et al.
# Submitted via: ExactAudioCopy v0.99pb5
#
DISCID=1d0cda14
DTITLE=Sister Rosetta Tharpe - Essential Early Recordings - CD1
DYEAR=2011
DGENRE=Blues
TTITLE0=My Man And I (1938)
TTITLE1=The Lonesome Road (1938)
TTITLE2=I Looked Down The Lane (And I Wondered) (1939)
TTITLE3=Saviour Don't Pass Me By (1939)
TTITLE4=Sit Down (1941)
TTITLE5=Stand By Me (1941)
TTITLE6=Trouble In Mind (1941)
TTITLE7=Shout, Sister, Shout (1941)
TTITLE8=Rock Me (1941)
TTITLE9=That's All (1941)
TTITLE10=Just A Closer Walk With Thee (1941)
TTITLE11=Precious Lord, Hold My Hand (1941)
TTITLE12=I Want A Tall Skinny Papa (1942)
TTITLE13=What He Done For Me (1942)
TTITLE14=All Over This World (1942)
TTITLE15=Let That Liar Alone (1943)
TTITLE16=Sleep On Darling Mother (1943)
TTITLE17=What Is The Soul Of Man (1944)
TTITLE18=I Claim Jesus First (1944)
TTITLE19=Strange Things Happen Every Day (1944)
EXTD=
EXTT0=
EXTT1=
EXTT2=
EXTT3=
EXTT4=
EXTT5=
EXTT6=
EXTT7=
EXTT8=
EXTT9=
EXTT10=
EXTT11=
EXTT12=
EXTT13=
EXTT14=
EXTT15=
EXTT16=
EXTT17=
EXTT18=
EXTT19=
PLAYORDER=
